<?xml version="1.0" encoding="UTF-8" standalone="no"?>
<!-- Created with Inkscape (http://www.inkscape.org/) -->
<svg
   xmlns:svg="http://www.w3.org/2000/svg"
   xmlns="http://www.w3.org/2000/svg"
   version="1.0"
   width="744.09448"
   height="760.39368"
   id="svg2545">
  <defs
     id="defs2547">























































</defs>
  <g
     transform="translate(-778.28383,-238.62652)"
     id="layer1">
    <g
       transform="translate(17.717104,17.721407)"
       id="g7486">
      <path
         d="M 1248.5738,831.98209 C 1248.5738,831.98209 1322.3844,809.28648 1367.0269,804.14503 C 1411.6527,799.02022 1431.9689,797.65582 1431.9689,797.65582 C 1431.9689,797.65582 1436.5613,796.65748 1437.4765,801.6159 C 1438.3583,806.12507 1431.3866,807.12341 1431.3866,807.12341 C 1295.0632,848.08865 1198.7732,889.23692 1187.3755,893.96239 C 1176.6766,898.42165 1038.0903,959.30378 1038.0903,959.30378 C 1038.0903,959.30378 1021.0853,965.51013 1007.1917,962.96436 C 993.31478,960.43523 990.48615,954.14569 989.42125,947.70639 C 989.42125,947.70639 985.32805,933.56323 1005.428,926.75788 C 1024.0304,920.46833 1073.6645,898.25526 1073.6645,898.25526 L 1204.1643,846.50794 L 1248.5738,831.98209"
         style="fill:#f5c323;fill-rule:nonzero;stroke:none;stroke-width:0.199;stroke-miterlimit:4"
         id="path5514" />
      <path
         d="M 769.09375,-68.71875 C 765.52541,-68.621867 761.34375,-65.65625 761.34375,-65.65625 C 711.75953,-75.98907 655.7446,-23.6197 652.5,-0.375 C 650.08727,16.54687 654.95865,28.54028 668.96875,31.46875 C 682.97873,34.413851 695.7224,29.316 706.6875,25.15625 C 717.636,20.96322 739.34375,4.15625 739.34375,4.15625 C 741.47355,9.5639301 753.222,14.7695 763.9375,15.21875 C 774.68627,15.68464 793.4011,6.97557 796.5625,4.8125 C 799.72388,2.6660698 799.6363,-1.61454 798.9375,-4.09375 C 798.23869,-6.5729602 784.81885,-8.1445 779.84375,-8.59375 C 774.88536,-9.0430002 770.59445,-11.52171 768.53125,-17.0625 C 766.51798,-22.58665 773.6263,-39.76383 776.9375,-51.84375 C 780.21532,-63.94031 773.5396,-68.35472 769.8125,-68.6875 C 769.58163,-68.708299 769.33164,-68.725209 769.09375,-68.71875 z M 613.5625,-67.5 C 610.68673,-67.428403 608.84375,-67.124999 608.84375,-67.125 C 608.84375,-67.125 547.45482,-58.232161 544.09375,-58.78125 C 540.36665,-59.38025 538.66667,-60.347811 536.1875,-60.28125 C 533.7083,-60.26461 530.50161,-58.620479 528.9375,-57.15625 C 523.613,-52.09799 527.09372,-43.374999 527.09375,-43.375 C 528.25845,-39.24853 533.00663,-34.963819 537,-33.25 C 545.4193,-29.68926 597.4375,-36.281252 597.4375,-36.28125 L 536.21875,13.78125 C 536.21875,13.78125 520.84511,24.766372 515.4375,39.625 C 510.0298,54.50028 519.59587,55.083191 520.84375,55 C 522.04175,54.90016 532.03442,52.340471 541.46875,51.625 C 550.95295,50.90952 576.70075,52.015439 585.96875,52.53125 C 595.22005,53.03042 617.07893,52.3496 631.9375,45.84375 C 646.7795,39.32126 652.08727,32.70519 650.65625,28.3125 C 649.22535,23.93644 644.01499,25.481751 643,25.78125 C 641.9684,26.06411 640.08003,26.268719 631.84375,27.5 C 623.60745,28.71465 599.48893,24.655419 595.3125,24.15625 C 591.1361,23.65708 576.09375,22.09375 576.09375,22.09375 C 577.92405,21.37827 631.125,-33.03125 631.125,-33.03125 C 631.125,-33.03125 647.00218,-50.129798 638.25,-59.28125 C 631.1462,-66.728243 619.8892,-67.657514 613.5625,-67.5 z M 742.875,-43.0625 C 742.87498,-43.062499 736.3315,-28.31605 735.25,-25.4375 C 734.16838,-22.542311 733.78125,-18.03125 733.78125,-18.03125 C 733.78123,-18.03125 716.44295,-8.08633 708.40625,-4.875 C 700.38624,-1.6803098 690.3125,-2.3125 690.3125,-2.3125 C 700.3791,-36.33927 742.875,-43.0625 742.875,-43.0625 z M 498.125,-35.96875 C 483.91896,-35.818999 458.77081,-34.797323 448.6875,-33.1875 C 435.21,-31.04106 425.41855,-32.204969 417.78125,-32.6875 C 410.12735,-33.18667 407.00001,-26.71875 407,-26.71875 C 399.4459,-10.86178 427.00001,-7.28125 427,-7.28125 C 445.0367,-5.43432 478.34374,-12.34375 478.34375,-12.34375 C 421.50485,34.14564 391.14225,62.130208 385.21875,71.53125 C 381.10885,78.1203 375.06321,89.779553 383,98.78125 C 390.9369,107.78296 409.28125,98.031252 409.28125,98.03125 C 432.60915,91.30909 475.34376,91.906254 475.34375,91.90625 C 475.34375,91.90625 497.47336,91.635601 535.34375,93 C 573.18085,94.38104 593.3013,81.281532 599.125,77.6875 C 604.932,74.11012 605.55395,70.579461 604.15625,68.25 C 602.72525,65.97046 599.35619,64.681883 595.5625,66.3125 C 591.7355,67.95976 577.34023,71.03088 568.9375,72.0625 C 560.5348,73.06084 541.73084,71.38574 506.40625,65.3125 C 471.08165,59.27254 441.37499,65.281249 441.375,65.28125 L 485.8125,23.125 C 485.8125,23.125 513.85153,-7.50812 517.3125,-18.65625 C 520.7734,-29.80439 513.04324,-35.228111 507.71875,-35.84375 C 506.37932,-35.99766 502.86035,-36.018667 498.125,-35.96875 z M 381.59375,-29.96875 C 380.96241,-29.972292 380.30928,-29.897775 379.625,-29.8125 C 374.1341,-29.1303 373.53126,-21.562499 373.53125,-21.5625 C 333.99695,30.46768 329.4175,47.207139 327.4375,62.78125 C 325.4408,78.33872 333.10596,98.037752 345.46875,98.1875 C 357.83155,98.33725 354.00002,87.624998 354,87.625 C 353.8503,85.04595 364.68491,59.653439 370.625,49.1875 C 383.4537,26.59173 391.32299,3.17311 390.125,-13 C 389.07675,-27.12236 386.01311,-29.943954 381.59375,-29.96875 z M 236.65625,-25.625 C 212.92648,-25.370394 190.79034,-17.262616 179.34375,-9.8125 C 158.9776,3.39887 166.29715,17.84504 168.34375,19.875 C 170.37372,21.92159 175.05923,24.56098 196.90625,16.125 C 196.90624,16.125 140.91828,79.60959 114.3125,214.46875 C 114.3125,214.46876 109.85435,247.84422 122.5,249.375 C 135.17892,250.8725 142.77614,231.89731 147.21875,220.25 C 149.1156,215.24166 231.44183,25.05361 216.5,14.6875 C 216.5,14.6875 267.81351,11.84338 273.4375,46.71875 C 279.04484,81.594109 224.99862,108.71562 209.125,111.84375 C 193.26803,114.98853 193.5808,121.43469 194.5625,122.25 C 195.56084,123.08195 199.03199,127.70727 219.53125,124.5625 C 240.03051,121.451 287.20083,107.16928 307.75,63.625 C 307.75,63.624998 327.49497,22.33291 290.65625,-8 C 274.54657,-21.263368 255.11274,-25.823027 236.65625,-25.625 z M 648.96875,75.65625 C 644.92587,75.871048 642.5625,78.999999 642.5625,79 C 638.0201,83.29287 613.1875,123.65625 613.1875,123.65625 C 613.1875,123.65625 596.57985,126.707 593.21875,127.15625 C 589.89095,127.60551 586.37502,126.84375 586.375,126.84375 C 580.2851,123.79881 566.87414,126.36976 567.65625,138.25 C 568.40495,150.14689 600.09376,150.00001 600.09375,150 L 600.03125,150.375 C 600.03125,150.375 588.16552,181.97835 584.9375,200.28125 C 581.7595,218.6008 583.30032,245.76346 583.5,247.59375 C 583.6997,249.42404 585.74891,256.95659 590.125,257.15625 C 594.5177,257.35592 596.53125,253.09376 596.53125,253.09375 L 613.9375,201.5 L 635.1875,144.125 C 643.3073,142.69405 720.37499,111.78125 720.375,111.78125 C 720.375,111.78125 728.2321,108.31158 727.5,105.25 C 726.6181,101.55614 722.06248,102.71875 722.0625,102.71875 L 647.28125,116.625 L 657.65625,95.6875 C 657.65625,95.6875 663.37223,83.109793 655.46875,77.71875 C 652.99891,76.03925 650.80642,75.558614 648.96875,75.65625 z M 418.28125,109.46875 C 416.28455,109.46875 412.30519,110.2353 400.375,130.21875 C 388.4948,150.21884 375.93751,194.37499 375.9375,194.375 L 321.75,205.84375 C 321.75,205.84375 358.182,113.0885 339.8125,113.6875 C 321.4597,114.28651 277.15625,215.15625 277.15625,215.15625 C 277.15625,215.15625 255.4764,217.86859 242.53125,220.28125 C 242.53125,220.28125 233.1899,221.747 232.125,228.71875 C 231.09338,235.69049 234.84376,240 234.84375,240 C 239.11997,246.08988 264.40625,248.84375 264.40625,248.84375 C 258.76562,266.23151 251.56899,296.4488 251.71875,305.75 C 251.88514,315.06784 253.42086,330.63559 264.71875,332 C 272.9717,332.99834 283.32687,327.42746 288.21875,318.875 C 293.11062,310.33919 309.59375,244.25001 309.59375,244.25 C 317.08128,243.48461 366.21876,223.78125 366.21875,223.78125 C 365.90255,225.61154 359.64489,247.59228 359.0625,263 C 358.4303,278.42436 365.15279,285.15912 371.875,285.625 C 378.5805,286.07426 385.59279,281.1941 391.25,272.625 C 396.8906,264.08919 411.43749,200.625 411.4375,200.625 L 432.53125,186.90625 C 432.53125,186.90625 438.05919,182.65086 436.0625,179.40625 C 434.0825,176.16164 430.56249,177.81251 430.5625,177.8125 L 415.65625,183.5 C 415.65625,183.5 425.14216,128.39496 426.65625,119.09375 C 428.17045,109.75927 420.26125,109.46875 418.28125,109.46875 z M 551.1875,138.4375 C 547.41865,138.50265 544.03125,141.0625 544.03125,141.0625 C 538.69015,145.33872 527.25002,168.84376 527.25,168.84375 C 517.9488,184.40123 471.62499,213.25 471.625,213.25 C 477.4819,198.29154 478.52351,184.10236 477.625,175.5 C 476.7265,166.86435 469.58691,154.21746 459.1875,152.1875 C 448.7881,150.15754 438.43984,152.88362 436.09375,155.5625 C 433.71435,158.22475 434.4921,160.91892 439.75,163.53125 C 444.958,166.14357 447.46876,171.90625 447.46875,171.90625 C 448.56695,174.18579 447.32266,178.0824 447.15625,178.78125 C 447.00645,179.46345 437.78126,207.3125 437.78125,207.3125 C 437.78125,207.3125 429.53416,234.17483 441.28125,242.84375 C 453.02845,251.56259 461.16224,250.63606 479.78125,242.25 C 498.41695,233.83066 520.49998,201.96875 520.5,201.96875 C 519.8844,223.34987 532.11795,233.99899 539.15625,239.65625 C 546.16135,245.29687 551.21876,243.78125 551.21875,243.78125 C 558.24045,239.65478 553.81977,233.54378 553.1875,232.3125 C 552.6052,231.09785 552.72258,193.55733 556.25,174.15625 C 559.7609,154.78844 559.28127,145.1875 559.28125,145.1875 C 557.28664,139.8443 554.11883,138.38683 551.1875,138.4375 z "
         transform="translate(687.60924,575.81428)"
         style="fill:#000000;fill-rule:nonzero;stroke:none;stroke-width:0.199;stroke-miterlimit:4"
         id="path5494" />
      <path
         d="M 1107.9243,459.33487 C 1107.9243,459.33487 1113.5816,456.50624 1115.9443,458.93553 C 1118.3237,461.39811 1116.9094,465.07533 1115.0624,468.43641 C 1113.2321,471.79749 1087.1921,511.99733 1078.3401,519.8343 C 1072.8326,524.69289 1064.9125,525.52484 1058.7061,521.86426 C 1052.4998,518.20368 1053.2984,506.17368 1055.5447,501.09878 C 1057.7743,496.02388 1065.212,481.74761 1080.4699,472.3133 C 1095.7445,462.86234 1107.9243,459.33487 1107.9243,459.33487"
         style="fill:#018e66;fill-rule:nonzero;stroke:none;stroke-width:0.199;stroke-miterlimit:4"
         id="path5522" />
      <path
         d="M 1447.1271,406.09004 L 1436.1287,398.48601 C 1405.0138,374.07659 1278.7403,324.02645 1278.7403,324.02645 C 1278.7403,324.02645 1269.905,303.95981 1264.8135,294.19271 C 1250.5705,266.82154 1229.206,245.27403 1228.1744,244.54191 C 1227.1761,243.80979 1226.1611,243.85971 1226.1611,243.85971 L 1225.1295,244.05938 L 1188.091,253.99287 L 1103.0158,278.63524 C 1103.0158,278.63524 1044.8125,296.85495 1042.0671,297.91985 C 1039.3217,298.96811 1037.325,300.7984 1037.325,300.7984 C 1037.325,300.7984 1017.4913,335.0082 1015.8274,338.95164 C 1014.1302,342.92837 991.23492,387.20477 991.23492,387.20477 L 934.46262,414.06012 C 929.33781,416.8222 929.18806,416.57262 890.05311,440.31648 L 842.44891,473.5945 C 842.44891,473.5945 797.3572,507.62127 793.59678,511.0489 C 789.83637,514.47654 785.70989,521.68123 789.60342,528.02069 C 793.48031,534.36015 803.24741,533.21206 803.24741,533.21206 L 851.69544,519.41298 L 943.97418,495.14678 L 1049.2718,473.42276 L 1064.3134,472.69599 C 1067.5248,469.70097 1071.2186,466.78914 1075.4117,464.16018 C 1090.0041,455.14184 1102.0174,451.1152 1104.6963,450.29988 C 1110.3536,447.78739 1117.7746,447.07192 1122.8162,452.27993 C 1124.9293,454.443 1126.8096,457.6876 1126.743,462.26333 L 1132.8329,461.23171 L 1133.1324,461.16516 L 1249.5555,446.10685 C 1249.5555,446.10685 1324.0484,438.51947 1348.8405,437.77071 C 1409.29,435.94042 1438.2751,426.8888 1438.2751,426.8888 C 1440.7044,425.87382 1448.8576,422.99527 1450.4715,416.35631 C 1452.0522,409.68407 1447.1271,406.09004 1447.1271,406.09004"
         style="fill:#da0021;fill-rule:nonzero;stroke:none;stroke-width:0.199;stroke-miterlimit:4"
         id="path5526" />
      <path
         d="M 558.125,-337.1875 C 557.99852,-337.18454 557.88311,-337.15407 557.75,-337.09375 C 556.6851,-336.61122 557.15627,-335.31251 557.15625,-335.3125 L 568.8125,-278.375 C 568.8125,-278.375 573.22081,-248.42593 575.75,-242.71875 C 578.329,-237.01157 596.28123,-231.0625 596.28125,-231.0625 C 631.98855,-222.51005 769.40624,-173.0625 769.40625,-173.0625 C 769.40625,-173.0625 778.16931,-169.80397 779.75,-169.6875 C 781.364,-169.53774 786.22615,-170.40805 788.15625,-175.25 C 790.10305,-180.10859 786.00566,-184.09213 785.65625,-184.375 C 785.32345,-184.65786 781.75,-186.40625 781.75,-186.40625 C 743.4803,-206.15675 668.61469,-232.37463 664.9375,-233.40625 C 661.2935,-234.40459 592.15625,-254.5625 592.15625,-254.5625 C 592.15625,-254.5625 571.66877,-310.84389 570.4375,-314.6875 C 569.2228,-318.56439 559.68751,-335.99999 559.6875,-336 C 559.6875,-336 559.01037,-337.20821 558.125,-337.1875 z M 526.1875,-331.65625 C 525.51622,-331.66171 525.09374,-331.59375 525.09375,-331.59375 L 489.09375,-322.40625 C 489.09375,-322.40625 350.2576,-282.60748 344.75,-280.84375 C 339.2592,-279.08001 337.90624,-275.09376 337.90625,-275.09375 C 323.66325,-251.15022 301.99226,-206.28521 301.09375,-203.65625 C 300.1786,-201.01065 301.1579,-199.96184 302.15625,-199.5625 C 303.15459,-199.14653 303.97118,-199.36528 304.1875,-199.78125 C 304.43709,-200.21386 349.6875,-266.25 349.6875,-266.25 L 443.46875,-288.4375 C 443.46875,-288.4375 527.02114,-314.67372 528.46875,-315.15625 C 529.89975,-315.63878 536.72717,-318.61794 534.28125,-325.65625 C 532.45927,-330.93498 528.20135,-331.63988 526.1875,-331.65625 z M 297.21875,-186.8125 C 296.5399,-186.79992 296.0625,-186.65625 296.0625,-186.65625 C 296.0625,-186.65626 291.07415,-184.67105 276.78125,-178.53125 C 249.01074,-166.65099 204.34375,-139.875 204.34375,-139.875 C 169.15225,-120.32416 95.28125,-60.40625 95.28125,-60.40625 C 95.281252,-60.406251 87.95428,-55.51632 91.78125,-46.53125 C 95.574946,-37.512912 105.53125,-38.71875 105.53125,-38.71875 L 212.8125,-67.5625 C 220.74931,-71.23972 360.71875,-99.78125 360.71875,-99.78125 L 375.9375,-102.375 C 379.33181,-105.63625 383.2368,-108.81098 387.8125,-111.65625 C 402.40489,-120.67459 414.41485,-124.68469 417.09375,-125.5 C 422.75094,-128.01249 430.17705,-128.73926 435.21875,-123.53125 C 437.41504,-121.26834 439.3579,-117.88782 439.125,-113.0625 L 445.25,-114.09375 L 445.40625,-114.125 C 525.10706,-127.91874 700.5,-139.5625 700.5,-139.5625 C 706.90599,-140.56083 724.2612,-146.2494 721,-163.4375 C 718.47092,-176.83191 695.7195,-177.64325 692.375,-177.34375 C 688.99733,-177.02761 462.27305,-147.11882 447.28125,-144.65625 C 365.15114,-131.24521 224.3125,-95.84375 224.3125,-95.84375 L 137.90625,-70.375 C 139.53688,-73.719441 208.6422,-122.4717 212.71875,-125.5 C 216.79531,-128.57822 296.84375,-177.78125 296.84375,-177.78125 C 296.84374,-177.78124 303.20082,-180.30453 301.1875,-184.28125 C 300.07476,-186.45472 298.35017,-186.83346 297.21875,-186.8125 z "
         transform="translate(687.60924,575.81428)"
         style="fill:#000000;fill-rule:nonzero;stroke:none;stroke-width:0.199;stroke-miterlimit:4"
         id="path5538" />
    </g>
  </g>
</svg>
